<?xml version="1.0"?><svg id="icons" viewBox="0 0 480 480" xmlns="http://www.w3.org/2000/svg" xmlns:xlink="http://www.w3.org/1999/xlink"><defs><style>.cls-1{fill:url(#linear-gradient);}.cls-2{fill:url(#linear-gradient-2);}.cls-3{fill:url(#linear-gradient-3);}.cls-4{fill:url(#linear-gradient-4);}</style><linearGradient gradientUnits="userSpaceOnUse" id="linear-gradient" x1="240" x2="240" y1="297.29" y2="182.71"><stop offset="0" stop-color="#f95200"/><stop offset="0.33" stop-color="#ffa100"/><stop offset="0.67" stop-color="#ff79e5"/><stop offset="1" stop-color="#4333e5"/></linearGradient><linearGradient id="linear-gradient-2" x1="240" x2="240" xlink:href="#linear-gradient" y1="392.25" y2="87.75"/><linearGradient id="linear-gradient-3" x1="240" x2="240" xlink:href="#linear-gradient" y1="367.25" y2="112.75"/><linearGradient id="linear-gradient-4" x1="240" x2="240" xlink:href="#linear-gradient" y1="384.75" y2="95.26"/></defs><title/><path class="cls-1" d="M292.94,207.23h-2.27c-1.54-10.93-6.73-19.21-14.52-22.78a18.2,18.2,0,0,0-19.69,2.68c-5.27,4.54-7.79,11.73-7.29,20.1h-4a30.08,30.08,0,0,0-6.83-14.91,23.7,23.7,0,0,0-18-8.14,25.63,25.63,0,0,0-18.63,8.27c-3.68,4-8.07,11-8.07,22.32,0,8.12,3.61,16.07,10.93,23.95A158.3,158.3,0,0,1,185,246.22a7.06,7.06,0,0,0,4.19,13.48,170.93,170.93,0,0,0,26.9-10.92q3.36,2.5,7.25,5c-13.45,8.24-28,14.64-33.21,16a7.06,7.06,0,1,0,3.66,13.63c7.1-1.91,26.81-10.56,43.25-21.69q6.28,3.33,13.49,6.67v21.81a7.06,7.06,0,0,0,14.12,0V264s0,0,0,0V221.35H277v68.88a7.06,7.06,0,0,0,14.12,0V221.35h1.79a7.06,7.06,0,0,0,0-14.12Zm-75.43,24.44c-7.91-7.48-9.7-13.23-9.7-16.9,0-10.82,6.33-16.48,12.59-16.48a9.76,9.76,0,0,1,7.39,3.38c2.57,2.91,3.93,7.44,3.93,13.1C231.72,219.86,226.41,225.88,217.51,231.67Zm33,21.12a186.54,186.54,0,0,1-21.33-12c7.37-5.42,13.39-11.91,15.68-19.41h5.65Zm12.81-45.56c-.5-4.88.74-8,2.38-9.41a4.08,4.08,0,0,1,4.58-.53c2.41,1.1,4.94,4.26,6.1,9.94Z"/><path class="cls-2" d="M240,87.75C156,87.75,87.75,156,87.75,240S156,392.25,240,392.25,392.25,324,392.25,240,324,87.75,240,87.75Zm0,300c-81.47,0-147.75-66.28-147.75-147.75S158.53,92.25,240,92.25,387.75,158.53,387.75,240,321.47,387.75,240,387.75Z"/><path class="cls-3" d="M240,112.75A127.25,127.25,0,1,0,367.25,240,127.39,127.39,0,0,0,240,112.75Zm0,250A122.75,122.75,0,1,1,362.75,240,122.89,122.89,0,0,1,240,362.75Z"/><path class="cls-4" d="M378.38,250c3.63-3,7.37-6,7.37-10s-3.75-7-7.37-10c-2.52-2.06-5.38-4.4-5.59-6.13s2-4.82,4-7.48c2.78-3.69,5.65-7.51,4.72-11.28s-5.3-5.91-9.52-7.91c-3-1.41-6.31-3-6.93-4.65s.82-5.14,2.12-8.18c1.81-4.27,3.68-8.68,1.87-12.13s-6.55-4.44-11.11-5.37c-3.22-.66-6.87-1.4-7.88-2.86s-.43-5.17.1-8.42c.74-4.58,1.5-9.33-1.09-12.25s-7.4-2.74-12-2.56c-3.29.13-7,.28-8.36-.91s-1.63-4.9-1.9-8.18c-.37-4.64-.76-9.43-4-11.66s-7.82-.89-12.28.39c-3.17.91-6.77,1.95-8.36,1.11s-2.74-4.35-3.78-7.46c-1.48-4.42-3-9-6.69-10.4s-7.78,1-11.79,3.32c-2.87,1.65-6.12,3.53-7.89,3.1s-3.68-3.54-5.43-6.3c-2.51-4-5.1-8-9-8.51s-7.27,2.84-10.6,6c-2.4,2.31-5.12,4.92-7,4.92s-4.56-2.61-7-4.92c-3.33-3.19-6.75-6.48-10.6-6s-6.52,4.56-9,8.51c-1.75,2.76-3.73,5.88-5.43,6.3s-5-1.44-7.89-3.1c-4-2.31-8.16-4.7-11.79-3.32s-5.21,6-6.68,10.39c-1,3.11-2.22,6.64-3.78,7.46s-5.19-.2-8.36-1.11c-4.46-1.28-9.07-2.61-12.28-.39s-3.61,7-4,11.66c-.26,3.28-.57,7-1.9,8.18s-5.07,1-8.36.91c-4.64-.18-9.45-.37-12,2.55s-1.83,7.66-1.09,12.25c.52,3.26,1.12,6.95.1,8.42s-4.66,2.21-7.88,2.86c-4.56.93-9.28,1.89-11.11,5.37s.06,7.86,1.87,12.13c1.29,3,2.76,6.5,2.12,8.18s-4,3.24-6.93,4.65c-4.22,2-8.58,4.08-9.52,7.91s1.95,7.58,4.72,11.28c2,2.66,4.26,5.66,4,7.48s-3.07,4.07-5.59,6.13c-3.63,3-7.37,6-7.37,10s3.75,7,7.37,10c2.52,2.06,5.38,4.4,5.59,6.13s-2,4.82-4,7.48c-2.78,3.69-5.65,7.51-4.72,11.28s5.3,5.91,9.52,7.91c3,1.41,6.31,3,6.93,4.65s-.82,5.14-2.12,8.18c-1.81,4.27-3.68,8.68-1.87,12.13s6.55,4.44,11.11,5.37c3.22.66,6.87,1.4,7.88,2.86s.43,5.17-.1,8.42c-.74,4.58-1.5,9.33,1.09,12.25s7.4,2.74,12,2.56c3.29-.13,7-.28,8.36.91s1.63,4.9,1.9,8.18c.38,4.64.76,9.43,4,11.66s7.82.89,12.28-.39c3.17-.91,6.77-2,8.36-1.11s2.74,4.35,3.78,7.46c1.48,4.42,3,9,6.69,10.4s7.78-1,11.79-3.32c2.87-1.65,6.13-3.53,7.89-3.1s3.68,3.54,5.43,6.3c2.51,4,5.1,8,9,8.51s7.27-2.84,10.6-6c2.4-2.31,5.12-4.92,7-4.92s4.56,2.61,7,4.92c3.12,3,6.33,6.08,9.87,6.08a6.25,6.25,0,0,0,.72,0c3.93-.47,6.52-4.56,9-8.51,1.75-2.76,3.73-5.88,5.43-6.3s5,1.44,7.89,3.1c4,2.31,8.16,4.7,11.79,3.32s5.21-6,6.68-10.39c1-3.11,2.22-6.64,3.78-7.46s5.19.2,8.36,1.11c4.46,1.28,9.07,2.61,12.28.39s3.61-7,4-11.66c.26-3.28.57-7,1.9-8.18s5.07-1,8.36-.91c4.64.18,9.45.37,12-2.55s1.83-7.66,1.09-12.25c-.52-3.26-1.12-6.95-.1-8.42s4.66-2.21,7.88-2.86c4.56-.93,9.28-1.89,11.11-5.37s-.06-7.86-1.87-12.12c-1.29-3-2.76-6.5-2.12-8.18s4-3.24,6.93-4.65c4.22-2,8.58-4.08,9.52-7.91s-1.95-7.58-4.72-11.28c-2-2.66-4.26-5.66-4-7.48S375.85,252.06,378.38,250Zm-5.15,16.31c1.94,2.59,4.36,5.81,3.95,7.5s-4.12,3.51-7.08,4.92c-3.9,1.86-7.94,3.78-9.21,7.11s.48,7.53,2.18,11.54c1.27,3,2.85,6.71,2,8.27s-4.82,2.4-8,3.05c-4.25.87-8.64,1.76-10.68,4.71s-1.33,7.4-.64,11.7c.52,3.22,1.16,7.22,0,8.55s-5.24,1.17-8.5,1c-4.35-.17-8.83-.35-11.52,2s-3,6.86-3.4,11.18c-.26,3.25-.59,7.31-2.06,8.32s-5.35-.11-8.47-1c-4.18-1.21-8.51-2.45-11.7-.77s-4.58,5.91-6,10c-1,3.11-2.33,7-4,7.61s-5.14-1.39-7.95-3c-3.78-2.18-7.7-4.43-11.21-3.57s-5.85,4.62-8.16,8.26c-1.76,2.78-4,6.23-5.76,6.45s-4.62-2.58-6.94-4.81c-3.16-3-6.43-6.17-10.08-6.17s-6.92,3.14-10.08,6.17c-2.33,2.23-5.23,5-6.95,4.81s-4-3.67-5.76-6.45c-2.31-3.64-4.7-7.41-8.16-8.26s-7.43,1.39-11.21,3.57c-2.81,1.62-6.3,3.64-7.95,3s-3-4.51-4-7.61c-1.37-4.11-2.79-8.35-6-10s-7.52-.44-11.7.77c-3.13.9-7,2-8.47,1s-1.8-5.07-2.06-8.32c-.35-4.33-.71-8.8-3.4-11.18s-7.18-2.21-11.52-2c-3.26.13-7.32.29-8.5-1s-.53-5.33,0-8.55c.69-4.29,1.41-8.73-.64-11.7s-6.43-3.84-10.68-4.71c-3.21-.65-7.19-1.47-8-3.05s.76-5.28,2-8.27c1.7-4,3.46-8.16,2.18-11.54s-5.3-5.26-9.21-7.11c-3-1.41-6.65-3.16-7.08-4.92s2-4.91,3.95-7.5c2.63-3.5,5.34-7.11,4.91-10.72s-3.87-6.35-7.21-9.08c-2.55-2.09-5.72-4.68-5.72-6.52s3.17-4.43,5.72-6.52c3.33-2.73,6.78-5.55,7.21-9.08s-2.28-7.22-4.91-10.72c-1.94-2.59-4.36-5.81-3.95-7.5s4.12-3.51,7.08-4.92c3.9-1.86,7.94-3.78,9.21-7.11s-.48-7.53-2.18-11.54c-1.27-3-2.85-6.71-2-8.27s4.82-2.4,8-3.05c4.25-.87,8.64-1.76,10.68-4.71s1.33-7.4.64-11.7c-.52-3.22-1.16-7.22,0-8.55s5.24-1.17,8.5-1c4.35.17,8.83.35,11.52-2s3-6.86,3.4-11.18c.26-3.25.59-7.31,2.06-8.32s5.35.12,8.47,1c4.18,1.2,8.51,2.45,11.7.77s4.58-5.91,6-10c1-3.11,2.33-7,4-7.61s5.14,1.4,7.95,3c3.78,2.18,7.69,4.42,11.21,3.57s5.85-4.62,8.16-8.26c1.76-2.78,4-6.23,5.76-6.45s4.62,2.58,6.94,4.81c3.16,3,6.43,6.17,10.08,6.17s6.92-3.14,10.08-6.17c2.33-2.24,5.22-5,6.95-4.81s4,3.67,5.76,6.45c2.31,3.64,4.7,7.41,8.16,8.26s7.43-1.39,11.21-3.57c2.81-1.62,6.3-3.64,7.95-3s3,4.51,4,7.61c1.37,4.11,2.79,8.35,6,10s7.52.44,11.7-.77c3.13-.9,7-2,8.47-1s1.8,5.07,2.06,8.32c.35,4.33.71,8.8,3.4,11.18s7.18,2.21,11.52,2c3.26-.13,7.32-.29,8.5,1s.53,5.33,0,8.55c-.69,4.29-1.41,8.73.64,11.7s6.43,3.84,10.68,4.71c3.21.65,7.19,1.47,8,3.05s-.76,5.28-2,8.27c-1.7,4-3.46,8.16-2.18,11.54s5.3,5.26,9.21,7.11c3,1.41,6.65,3.16,7.08,4.92s-2,4.91-3.95,7.5c-2.63,3.5-5.34,7.11-4.91,10.72s3.87,6.35,7.21,9.08c2.55,2.09,5.72,4.68,5.72,6.52s-3.17,4.43-5.72,6.52c-3.33,2.73-6.78,5.55-7.21,9.08S370.6,262.82,373.23,266.31Z"/></svg>